<?xml version="1.0" encoding="UTF-8"?>
<svg width="192px" height="192px" viewBox="0 0 192 192" version="1.1" xmlns="http://www.w3.org/2000/svg">
    <g stroke="none" stroke-width="1" fill="none" fill-rule="evenodd">
        <rect fill="#6D28D9" x="0" y="0" width="192" height="192" rx="24"></rect>
        <path d="M96,168 L86.4173,159.56639 C43.2,120.93188 16,96.7724978 16,67.088076 C16,42.9642335 35.355,24 60.25,24 C73.79,24 87.29,30.3641281 96,40.4008091 C104.71,30.3641281 118.21,24 131.75,24 C156.645,24 176,42.9642335 176,67.088076 C176,96.7724978 148.8,120.93188 105.583,159.57469 L96,168 Z" fill="#FFFFFF" fill-rule="nonzero"></path>
        <path d="M96,150 L88.3406,143.273177 C53.3334,112.693752 32,93.9481162 32,70.3210245 C32,50.9114379 47.12,36 67.3334,36 C75.2266,36 86.4766,41.1848456 96,49.9301749 C105.523,41.1848456 116.773,36 124.667,36 C144.88,36 160,50.9114379 160,70.3210245 C160,93.9481162 138.667,112.693752 103.659,143.28048 L96,150 Z" fill="#DB2777" fill-rule="nonzero"></path>
    </g>
</svg>