<?xml version="1.0" encoding="UTF-8"?>
<svg width="512px" height="512px" viewBox="0 0 512 512" version="1.1" xmlns="http://www.w3.org/2000/svg">
    <g stroke="none" stroke-width="1" fill="none" fill-rule="evenodd">
        <rect fill="#6D28D9" x="0" y="0" width="512" height="512" rx="64"></rect>
        <path d="M256,448 L230.446,425.510354 C115.2,322.485014 42.6666667,258.059994 42.6666667,178.901537 C42.6666667,114.571289 94.28,64 170.666667,64 C196.773333,64 232.773333,80.9710082 256,107.735424 C279.226667,80.9710082 315.226667,64 341.333333,64 C417.72,64 469.333333,114.571289 469.333333,178.901537 C469.333333,258.059994 396.8,322.485014 281.554,425.532518 L256,448 Z" fill="#FFFFFF" fill-rule="nonzero"></path>
        <path d="M256,400 L235.575,382.061806 C142.222,300.516672 85.3333333,250.52831 85.3333333,187.522732 C85.3333333,135.763834 125.653333,96 179.555556,96 C200.604444,96 230.604444,109.826255 256,133.147133 C281.395556,109.826255 311.395556,96 332.444444,96 C386.346667,96 426.666667,135.763834 426.666667,187.522732 C426.666667,250.52831 369.777778,300.516672 276.425,382.081267 L256,400 Z" fill="#DB2777" fill-rule="nonzero"></path>
    </g>
</svg>